<svg width="728" height="225" viewBox="0 0 728 225" fill="none" xmlns="http://www.w3.org/2000/svg">
<path d="M544.574 114.661H544.601L544.627 114.662C545.634 114.667 545.637 114.666 546.659 114.671V114.672C556.496 114.735 565.049 115.304 573.565 117.671L573.692 117.707L573.821 117.739C575.059 118.048 575.12 118.063 576.264 118.348C582.598 120.178 588.038 123.945 591.54 129.013C594.302 134.915 594.821 140.606 594.683 148.932L594.681 149.044V149.158C594.688 150.332 594.694 151.505 594.701 152.713C594.627 162.451 593.001 169.168 587.982 175.135C583.947 178.845 578.5 181.117 571.732 182.377C564.71 183.685 557.065 183.771 549.348 183.689H549.331C546.233 183.661 543.159 183.687 540.169 183.719C524.776 183.742 512.032 182.119 503.361 174.002C497.043 167.042 496.505 156.44 496.888 142.408C497.298 134.973 499.473 128.996 503.691 124.719C515.286 116.547 528.447 114.488 544.574 114.661Z" stroke="white" stroke-width="20"/>
<path d="M544.676 105.162H544.678C545.688 105.167 545.689 105.167 546.719 105.172C556.519 105.235 565.783 105.778 575.198 108.271L576.109 108.518L576.122 108.521C577.418 108.844 577.424 108.846 578.734 109.173H578.735C587.294 111.606 594.926 116.843 599.809 124.286C603.802 132.43 604.332 140.039 604.181 149.09V149.102L604.202 152.745C604.123 163.824 602.207 173.235 594.877 181.694C589.014 187.304 581.487 190.224 573.472 191.717C565.445 193.213 556.968 193.27 549.247 193.188H549.246C546.245 193.161 543.249 193.187 540.254 193.219C524.718 193.247 508.264 191.825 496.594 180.679C487.02 170.415 487.02 155.519 487.395 141.999C487.888 132.697 490.762 123.919 497.562 117.422C511.719 107.161 527.49 104.978 544.676 105.162Z" stroke="white"/>
<path d="M128.242 0.0361328C128.902 0.0361328 129.562 0.0361328 130.242 0.0361328C131.472 1.64648 131.472 1.64648 132.859 3.92676C133.377 4.77093 133.896 5.61511 134.429 6.48486C135.265 7.87149 135.265 7.87149 136.117 9.28613C136.698 10.2376 137.279 11.1891 137.877 12.1694C139.674 15.1197 141.46 18.0766 143.242 21.0361C143.757 21.8898 144.271 22.7435 144.801 23.623C147.259 27.7057 149.707 31.7936 152.152 35.8838C157.189 44.2994 162.309 52.6647 167.416 61.0381C169.315 64.1551 171.209 67.275 173.102 70.3955C173.732 71.4341 174.363 72.4727 175.012 73.5427C176.217 75.528 177.421 77.5138 178.625 79.5002C179.171 80.4003 179.718 81.3003 180.281 82.2275C180.789 83.0682 181.298 83.9088 181.821 84.7749C183.042 86.7168 184.336 88.5373 185.703 90.376C187.242 93.0361 187.242 93.0361 186.992 95.9111C186.621 96.963 186.621 96.963 186.242 98.0361C185.492 98.2785 184.742 98.5208 183.969 98.7705C176.41 101.246 168.925 103.857 161.707 107.216C159.242 108.036 159.242 108.036 157.191 108.075C154.042 106.397 152.735 103.432 151.055 100.411C150.263 99.0398 149.472 97.6687 148.68 96.2979C148.277 95.5919 147.875 94.886 147.461 94.1587C145.542 90.8169 143.546 87.5223 141.555 84.2236C140.812 82.9842 140.07 81.7446 139.328 80.5049C138.012 78.3096 136.683 76.1242 135.344 73.9424C134.795 73.0452 134.245 72.148 133.68 71.2236C133.204 70.4541 132.728 69.6845 132.238 68.8916C131.242 67.0361 131.242 67.0361 131.242 65.0361C130.582 65.0361 129.922 65.0361 129.242 65.0361C129.126 65.6011 129.01 66.1662 128.89 66.7483C128.171 69.2868 127.138 71.3275 125.871 73.6416C125.385 74.5332 124.898 75.4249 124.397 76.3435C123.872 77.2939 123.346 78.2444 122.805 79.2236C122.26 80.2147 121.716 81.2057 121.156 82.2268C117.627 88.6204 113.988 94.9359 110.247 101.207C106.257 107.929 102.466 114.76 98.6797 121.599C98.3557 122.184 98.0317 122.768 97.6979 123.371C96.1184 126.223 94.5399 129.076 92.9619 131.929C90.6681 136.074 88.3676 140.214 86.0547 144.349C85.548 145.261 85.548 145.261 85.031 146.193C84.12 147.818 83.1818 149.427 82.2422 151.036C81.6686 152.034 81.0949 153.032 80.5039 154.06C77.5641 157.929 74.1415 160.494 70.2422 163.349C69.1005 164.203 69.1005 164.203 67.9358 165.075C65.7113 166.738 63.4784 168.389 61.2422 170.036C52.3017 176.65 43.6343 183.536 35.0312 190.579C32.7443 192.442 30.4321 194.271 28.1172 196.099C23.2589 199.962 18.5675 204.014 13.8862 208.089C9.45113 211.932 9.45113 211.932 7.24219 213.036C8.77746 208.952 10.6823 205.124 12.7422 201.286C13.0918 200.633 13.4415 199.979 13.8018 199.306C16.8221 193.715 20.0184 188.237 23.2612 182.773C26.5161 177.286 29.7077 171.766 32.8672 166.224C33.6086 164.923 33.6086 164.923 34.365 163.597C35.4215 161.743 36.4777 159.889 37.5337 158.035C40.7036 152.471 43.8785 146.909 47.0547 141.349C47.3925 140.757 47.7303 140.166 48.0784 139.556C56.6741 124.51 65.3366 109.503 74.0234 94.5088C80.789 82.8208 87.4689 71.092 94.041 59.2942C98.605 51.1226 103.299 43.0326 108.036 34.9607C112.833 26.776 117.516 18.5303 122.156 10.2563C122.664 9.35223 123.172 8.44812 123.695 7.5166C124.14 6.72149 124.585 5.92638 125.044 5.10718C126.045 3.37738 127.134 1.69894 128.242 0.0361328Z" fill="#3E8B2B"/>
<path d="M128.242 0.0361328C128.902 0.0361328 129.562 0.0361328 130.242 0.0361328C131.472 1.64648 131.472 1.64648 132.859 3.92676C133.377 4.77093 133.896 5.61511 134.429 6.48486C135.265 7.87149 135.265 7.87149 136.117 9.28613C136.698 10.2376 137.279 11.1891 137.877 12.1694C139.674 15.1197 141.46 18.0766 143.242 21.0361C143.757 21.8898 144.271 22.7435 144.801 23.623C147.259 27.7057 149.707 31.7936 152.152 35.8838C157.189 44.2994 162.309 52.6647 167.416 61.0381C169.315 64.1551 171.209 67.275 173.102 70.3955C173.732 71.4341 174.363 72.4727 175.012 73.5427C176.217 75.528 177.421 77.5138 178.625 79.5002C179.171 80.4003 179.718 81.3003 180.281 82.2275C180.789 83.0682 181.298 83.9088 181.821 84.7749C183.042 86.7168 184.336 88.5373 185.703 90.376C187.242 93.0361 187.242 93.0361 186.992 95.9111C186.621 96.963 186.621 96.963 186.242 98.0361C185.492 98.2785 184.742 98.5208 183.969 98.7705C176.41 101.246 168.925 103.857 161.707 107.216C159.242 108.036 159.242 108.036 157.191 108.075C154.042 106.397 152.735 103.432 151.055 100.411C150.263 99.0398 149.472 97.6687 148.68 96.2979C148.277 95.5919 147.875 94.886 147.461 94.1587C145.542 90.8169 143.546 87.5223 141.555 84.2236C140.812 82.9842 140.07 81.7446 139.328 80.5049C138.012 78.3096 136.683 76.1242 135.344 73.9424C134.795 73.0452 134.245 72.148 133.68 71.2236C133.204 70.4541 132.728 69.6845 132.238 68.8916C131.242 67.0361 131.242 67.0361 131.242 65.0361C130.582 65.0361 129.922 65.0361 129.242 65.0361C129.126 65.6011 129.01 66.1662 128.89 66.7483C128.171 69.2868 127.138 71.3275 125.871 73.6416C125.385 74.5332 124.898 75.4249 124.397 76.3435C123.872 77.2939 123.346 78.2444 122.805 79.2236C122.26 80.2147 121.716 81.2057 121.156 82.2268C117.627 88.6204 113.988 94.9359 110.247 101.207C106.257 107.929 102.466 114.76 98.6797 121.599C98.3557 122.184 98.0317 122.768 97.6979 123.371C96.1184 126.223 94.5399 129.076 92.9619 131.929C90.6681 136.074 88.3676 140.214 86.0547 144.349C85.548 145.261 85.548 145.261 85.031 146.193C84.12 147.818 83.1818 149.427 82.2422 151.036C81.6686 152.034 81.0949 153.032 80.5039 154.06C77.5641 157.929 74.1415 160.494 70.2422 163.349C69.1005 164.203 69.1005 164.203 67.9358 165.075C65.7113 166.738 63.4784 168.389 61.2422 170.036C52.3017 176.65 43.6343 183.536 35.0312 190.579C32.7443 192.442 30.4321 194.271 28.1172 196.099C23.2589 199.962 18.5675 204.014 13.8862 208.089C9.45113 211.932 9.45113 211.932 7.24219 213.036C8.77746 208.952 10.6823 205.124 12.7422 201.286C13.0918 200.633 13.4415 199.979 13.8018 199.306C16.8221 193.715 20.0184 188.237 23.2612 182.773C26.5161 177.286 29.7077 171.766 32.8672 166.224C33.6086 164.923 33.6086 164.923 34.365 163.597C35.4215 161.743 36.4777 159.889 37.5337 158.035C40.7036 152.471 43.8785 146.909 47.0547 141.349C47.3925 140.757 47.7303 140.166 48.0784 139.556C56.6741 124.51 65.3366 109.503 74.0234 94.5088C80.789 82.8208 87.4689 71.092 94.041 59.2942C98.605 51.1226 103.299 43.0326 108.036 34.9607C112.833 26.776 117.516 18.5303 122.156 10.2563C122.664 9.35223 123.172 8.44812 123.695 7.5166C124.14 6.72149 124.585 5.92638 125.044 5.10718C126.045 3.37738 127.134 1.69894 128.242 0.0361328Z" fill="#3E8B2B"/>
<path d="M621.242 106.036C632.545 105.995 643.847 105.953 655.492 105.911C659.037 105.893 662.583 105.874 666.235 105.856C670.625 105.847 670.625 105.847 672.691 105.845C674.109 105.842 675.526 105.835 676.944 105.825C692.847 105.715 708.246 106.385 720.328 117.891C728.151 126.656 727.387 137.072 727.34 148.188C727.338 149.444 727.337 150.699 727.336 151.992C727.331 155.308 727.322 158.624 727.311 161.94C727.301 165.332 727.296 168.724 727.291 172.116C727.281 178.756 727.261 185.396 727.242 192.036C718.992 192.036 710.742 192.036 702.242 192.036C702.205 187.919 702.167 183.801 702.129 179.559C702.091 176.266 702.05 172.973 702.007 169.68C701.962 166.21 701.923 162.74 701.896 159.269C701.865 155.282 701.81 151.296 701.754 147.309C701.748 146.072 701.741 144.834 701.735 143.559C701.677 135.354 701.677 135.354 698.242 128.036C692.253 123.211 684.15 123.866 676.809 123.719C676.029 123.701 675.25 123.682 674.447 123.663C671.566 123.595 668.686 123.535 665.805 123.473C659.349 123.329 652.893 123.185 646.242 123.036C646.242 145.806 646.242 168.576 646.242 192.036C637.992 192.036 629.742 192.036 621.242 192.036C621.242 163.656 621.242 135.276 621.242 106.036Z" fill="#161719"/>
<path d="M621.242 106.036C632.545 105.995 643.847 105.953 655.492 105.911C659.037 105.893 662.583 105.874 666.235 105.856C670.625 105.847 670.625 105.847 672.691 105.845C674.109 105.842 675.526 105.835 676.944 105.825C692.847 105.715 708.246 106.385 720.328 117.891C728.151 126.656 727.387 137.072 727.34 148.188C727.338 149.444 727.337 150.699 727.336 151.992C727.331 155.308 727.322 158.624 727.311 161.94C727.301 165.332 727.296 168.724 727.291 172.116C727.281 178.756 727.261 185.396 727.242 192.036C718.992 192.036 710.742 192.036 702.242 192.036C702.205 187.919 702.167 183.801 702.129 179.559C702.091 176.266 702.05 172.973 702.007 169.68C701.962 166.21 701.923 162.74 701.896 159.269C701.865 155.282 701.81 151.296 701.754 147.309C701.748 146.072 701.741 144.834 701.735 143.559C701.677 135.354 701.677 135.354 698.242 128.036C692.253 123.211 684.15 123.866 676.809 123.719C676.029 123.701 675.25 123.682 674.447 123.663C671.566 123.595 668.686 123.535 665.805 123.473C659.349 123.329 652.893 123.185 646.242 123.036C646.242 145.806 646.242 168.576 646.242 192.036C637.992 192.036 629.742 192.036 621.242 192.036C621.242 163.656 621.242 135.276 621.242 106.036Z" fill="white"/>
<path d="M325.332 69.0364C325.332 109.956 325.242 149.876 325.242 192.036C316.662 192.036 308.082 192.036 299.242 192.036C299.242 151.446 299.242 110.856 299.242 69.0362C312.242 68.0362 312.332 69.0364 325.332 69.0364Z" fill="white"/>
<path d="M325.332 69.0364C325.332 109.956 325.242 149.876 325.242 192.036C316.662 192.036 308.082 192.036 299.242 192.036C299.242 151.446 299.242 110.856 299.242 69.0362C312.242 68.0362 312.332 69.0364 325.332 69.0364Z" fill="white"/>
<path d="M196.242 112.036C200.787 116.129 203.629 120.64 206.68 125.911C207.741 127.712 208.804 129.513 209.867 131.313C210.419 132.252 210.971 133.19 211.539 134.157C214.377 138.955 217.278 143.714 220.18 148.474C220.76 149.426 221.339 150.379 221.937 151.36C226.578 158.973 231.264 166.557 235.98 174.124C244.242 187.408 244.242 187.408 244.242 190.036C205.88 194.348 211.91 191.841 202.268 186.397C195.114 180.604 191.221 175.024 183.559 165.204C180.782 160.811 178.697 157.442 176.18 153.599C175.52 152.491 174.86 151.384 174.18 150.243C172.784 147.933 171.371 145.642 169.93 143.36C169.552 142.76 169.174 142.159 168.785 141.54C167.755 139.905 166.715 138.275 165.676 136.646C164.242 134.036 164.242 134.036 164.242 131.036C165.672 129.705 165.672 129.705 167.688 128.364C168.429 127.868 169.17 127.371 169.934 126.859C170.737 126.34 171.54 125.821 172.367 125.286C173.177 124.754 173.986 124.222 174.82 123.674C181.711 119.219 188.78 115.443 196.242 112.036Z" fill="#111313"/>
<path d="M196.242 112.036C200.787 116.129 203.629 120.64 206.68 125.911C207.741 127.712 208.804 129.513 209.867 131.313C210.419 132.252 210.971 133.19 211.539 134.157C214.377 138.955 217.278 143.714 220.18 148.474C220.76 149.426 221.339 150.379 221.937 151.36C226.578 158.973 231.264 166.557 235.98 174.124C244.242 187.408 244.242 187.408 244.242 190.036C205.88 194.348 211.91 191.841 202.268 186.397C195.114 180.604 191.221 175.024 183.559 165.204C180.782 160.811 178.697 157.442 176.18 153.599C175.52 152.491 174.86 151.384 174.18 150.243C172.784 147.933 171.371 145.642 169.93 143.36C169.552 142.76 169.174 142.159 168.785 141.54C167.755 139.905 166.715 138.275 165.676 136.646C164.242 134.036 164.242 134.036 164.242 131.036C165.672 129.705 165.672 129.705 167.688 128.364C168.429 127.868 169.17 127.371 169.934 126.859C170.737 126.34 171.54 125.821 172.367 125.286C173.177 124.754 173.986 124.222 174.82 123.674C181.711 119.219 188.78 115.443 196.242 112.036Z" fill="white"/>
<path d="M220.292 96.5917C219.282 97.0068 217.223 97.8657 216.184 98.2934C195.412 107.063 176.088 118.731 157.242 131.036C156.185 131.717 155.128 132.399 154.039 133.102C144.883 139.093 136.072 145.579 127.242 152.036C126.411 152.643 125.579 153.251 124.723 153.877C122.206 155.719 119.692 157.564 117.18 159.411C116.419 159.969 115.658 160.527 114.875 161.102C111.097 163.887 107.378 166.72 103.711 169.649C99.6149 172.847 95.3849 175.411 90.8045 177.848C89.2224 178.709 87.6404 179.569 86.0584 180.43C85.2594 180.861 84.4603 181.293 83.6371 181.737C79.8214 183.806 76.033 185.922 72.242 188.036C70.7278 188.876 69.2134 189.715 67.6991 190.555C64.8357 192.145 61.9793 193.747 59.1288 195.36C49.6471 200.707 40.0373 205.789 30.3671 210.786C29.4489 211.26 29.4489 211.26 28.5122 211.744C24.4279 213.853 20.3355 215.945 16.2421 218.036C15.1048 218.625 13.9675 219.215 12.7958 219.823C11.7236 220.372 10.6514 220.922 9.54675 221.489C8.59526 221.98 7.64377 222.472 6.66345 222.978C4.24206 224.036 3 224.512 0 224.512C6.34393 218.544 14.0886 212.476 20.9747 207.146C24.8221 204.164 28.5829 201.11 32.3046 197.973C43.4931 188.598 55.2551 180.054 67.1185 171.562C68.9974 170.211 70.8662 168.848 72.7303 167.477C89.109 155.486 106.527 144.922 124.242 135.036C125.173 134.516 126.103 133.997 127.062 133.461C153.075 119.014 179.559 106.236 208.242 98.0356C209.339 97.718 209.339 97.718 210.459 97.394C215.878 95.9143 216.928 95.4705 220.292 96.5917Z" fill="#141616"/>
<path d="M220.292 96.5917C219.282 97.0068 217.223 97.8657 216.184 98.2934C195.412 107.063 176.088 118.731 157.242 131.036C156.185 131.717 155.128 132.399 154.039 133.102C144.883 139.093 136.072 145.579 127.242 152.036C126.411 152.643 125.579 153.251 124.723 153.877C122.206 155.719 119.692 157.564 117.18 159.411C116.419 159.969 115.658 160.527 114.875 161.102C111.097 163.887 107.378 166.72 103.711 169.649C99.6149 172.847 95.3849 175.411 90.8045 177.848C89.2224 178.709 87.6404 179.569 86.0584 180.43C85.2594 180.861 84.4603 181.293 83.6371 181.737C79.8214 183.806 76.033 185.922 72.242 188.036C70.7278 188.876 69.2134 189.715 67.6991 190.555C64.8357 192.145 61.9793 193.747 59.1288 195.36C49.6471 200.707 40.0373 205.789 30.3671 210.786C29.4489 211.26 29.4489 211.26 28.5122 211.744C24.4279 213.853 20.3355 215.945 16.2421 218.036C15.1048 218.625 13.9675 219.215 12.7958 219.823C11.7236 220.372 10.6514 220.922 9.54675 221.489C8.59526 221.98 7.64377 222.472 6.66345 222.978C4.24206 224.036 3 224.512 0 224.512C6.34393 218.544 14.0886 212.476 20.9747 207.146C24.8221 204.164 28.5829 201.11 32.3046 197.973C43.4931 188.598 55.2551 180.054 67.1185 171.562C68.9974 170.211 70.8662 168.848 72.7303 167.477C89.109 155.486 106.527 144.922 124.242 135.036C125.173 134.516 126.103 133.997 127.062 133.461C153.075 119.014 179.559 106.236 208.242 98.0356C209.339 97.718 209.339 97.718 210.459 97.394C215.878 95.9143 216.928 95.4705 220.292 96.5917Z" fill="white"/>
<path d="M129.24 2.03613C132.834 3.23391 133.118 4.01057 134.998 7.18066C135.532 8.07036 136.066 8.96005 136.617 9.87671C137.194 10.8574 137.771 11.8382 138.365 12.8486C139.632 14.966 140.899 17.0832 142.166 19.2002C143.165 20.879 143.165 20.879 144.184 22.5918C147.253 27.7422 150.375 32.86 153.493 37.9811C155.279 40.9174 157.063 43.8557 158.846 46.7939C159.204 47.3837 159.562 47.9735 159.931 48.5812C162.188 52.3008 164.444 56.0218 166.697 59.7438C168.22 62.2584 169.744 64.7725 171.268 67.2865C171.985 68.4713 172.703 69.6563 173.419 70.8416C174.424 72.5022 175.43 74.1618 176.436 75.8213C177.378 77.3819 177.378 77.3819 178.339 78.9741C179.625 81.0455 180.954 83.0908 182.321 85.1099C182.973 86.0742 183.624 87.0386 184.295 88.0322C184.885 88.8784 185.476 89.7246 186.084 90.5964C187.485 93.5516 187.2 94.9679 186.24 98.0361C185.49 98.2785 184.74 98.5208 183.967 98.7705C176.408 101.246 168.923 103.857 161.705 107.216C159.24 108.036 159.24 108.036 157.19 108.075C154.041 106.397 152.733 103.432 151.053 100.411C150.262 99.0398 149.47 97.6687 148.678 96.2979C148.276 95.5919 147.873 94.886 147.459 94.1587C145.54 90.8169 143.545 87.5223 141.553 84.2236C140.809 82.9829 140.066 81.7421 139.322 80.501C138.015 78.3215 136.699 76.1481 135.377 73.9775C134.837 73.0894 134.297 72.2012 133.74 71.2861C133.044 70.1492 133.044 70.1492 132.334 68.9893C130.144 65.0792 130.055 61.6977 129.924 57.29C129.893 56.2769 129.893 56.2769 129.861 55.2434C129.795 53.0286 129.736 50.8137 129.678 48.5986C129.657 47.8462 129.636 47.0939 129.614 46.3187C129.2 31.556 129.125 16.8045 129.24 2.03613Z" fill="#307923"/>
<path d="M129.158 0C132.751 1.19777 133.118 4.01045 134.998 7.18055C135.532 8.07024 136.066 8.95994 136.616 9.87659C137.193 10.8573 137.77 11.8381 138.365 12.8485C139.632 14.9659 140.899 17.083 142.166 19.2001C143.165 20.8789 143.165 20.8789 144.184 22.5917C147.252 27.7421 150.375 32.8599 153.492 37.981C155.279 40.9172 157.062 43.8555 158.845 46.7938C159.203 47.3836 159.561 47.9734 159.93 48.5811C162.188 52.3006 164.443 56.0217 166.697 59.7436C168.22 62.2583 169.743 64.7724 171.267 67.2864C171.985 68.4712 172.702 69.6562 173.419 70.8415C174.423 72.5021 175.429 74.1616 176.435 75.8212C177.377 77.3818 177.377 77.3818 178.339 78.974C179.625 81.0454 180.954 83.0907 182.321 85.1097C182.972 86.0741 183.624 87.0385 184.295 88.0321C184.885 88.8783 185.475 89.7245 186.083 90.5963C187.484 93.5515 187.2 94.9678 186.24 98.036C185.49 98.2783 184.739 98.5207 183.966 98.7704C176.408 101.245 168.923 103.857 161.705 107.216C159.24 108.036 159.24 108.036 157.189 108.075C154.04 106.396 152.732 103.432 151.052 100.411C150.261 99.0397 149.469 97.6686 148.677 96.2977C148.275 95.5918 147.873 94.8859 147.459 94.1586C145.54 90.8167 143.544 87.5221 141.552 84.2235C140.809 82.9828 140.065 81.7419 139.322 80.5008C138.015 78.3213 136.699 76.1479 135.377 73.9774C134.837 73.0892 134.296 72.2011 133.74 71.286C133.044 70.149 133.044 70.149 132.334 68.9891C130.144 65.079 130.055 61.6976 129.924 57.2899C129.892 56.2768 129.892 56.2768 129.86 55.2432C129.794 53.0284 129.735 50.8135 129.677 48.5985C129.656 47.8461 129.635 47.0937 129.613 46.3185C129.199 31.5558 129.043 14.7683 129.158 0Z" fill="#307923"/>
<path d="M462.555 105.849C464.085 105.864 465.616 105.878 467.147 105.89C470.846 105.92 474.543 105.979 478.242 106.036C478.242 111.646 478.242 117.256 478.242 123.036C476.374 123.074 474.507 123.111 472.582 123.15C470.115 123.215 467.647 123.282 465.18 123.349C463.951 123.371 462.722 123.394 461.455 123.417C450.655 123.679 450.655 123.679 441.867 129.411C439.251 133.638 439.116 137.762 439.037 142.653C439.017 143.753 438.997 144.854 438.976 145.988C438.951 147.754 438.951 147.754 438.926 149.556C438.905 150.769 438.884 151.983 438.863 153.234C438.798 157.105 438.739 160.977 438.68 164.849C438.637 167.476 438.593 170.103 438.549 172.73C438.441 179.165 438.342 185.601 438.242 192.036C429.992 192.036 421.742 192.036 413.242 192.036C413.158 184.705 413.078 177.375 413.035 170.043C413.014 166.628 412.986 163.212 412.94 159.797C412.888 155.863 412.869 151.928 412.852 147.993C412.831 146.792 412.81 145.59 412.789 144.352C412.787 135.307 413.835 125.14 419.367 117.599C432.01 106.33 446.43 105.568 462.555 105.849Z" fill="#161819"/>
<path d="M462.555 105.849C464.085 105.864 465.616 105.878 467.147 105.89C470.846 105.92 474.543 105.979 478.242 106.036C478.242 111.646 478.242 117.256 478.242 123.036C476.374 123.074 474.507 123.111 472.582 123.15C470.115 123.215 467.647 123.282 465.18 123.349C463.951 123.371 462.722 123.394 461.455 123.417C450.655 123.679 450.655 123.679 441.867 129.411C439.251 133.638 439.116 137.762 439.037 142.653C439.017 143.753 438.997 144.854 438.976 145.988C438.951 147.754 438.951 147.754 438.926 149.556C438.905 150.769 438.884 151.983 438.863 153.234C438.798 157.105 438.739 160.977 438.68 164.849C438.637 167.476 438.593 170.103 438.549 172.73C438.441 179.165 438.342 185.601 438.242 192.036C429.992 192.036 421.742 192.036 413.242 192.036C413.158 184.705 413.078 177.375 413.035 170.043C413.014 166.628 412.986 163.212 412.94 159.797C412.888 155.863 412.869 151.928 412.852 147.993C412.831 146.792 412.81 145.59 412.789 144.352C412.787 135.307 413.835 125.14 419.367 117.599C432.01 106.33 446.43 105.568 462.555 105.849Z" fill="white"/>
<path d="M378.074 104.645C380.013 104.665 380.013 104.665 381.99 104.684C383.345 104.718 384.7 104.752 386.055 104.786C387.429 104.806 388.803 104.824 390.178 104.841C393.533 104.888 396.887 104.953 400.242 105.036C399.453 105.824 398.664 106.613 397.851 107.425C396.396 108.881 394.944 110.34 393.504 111.809C389.986 115.389 386.343 118.744 382.543 122.02C379.734 124.481 376.987 127.006 374.242 129.536C370.204 133.257 366.13 136.926 361.961 140.501C359.977 142.273 358.109 144.141 356.242 146.036C356.952 146.7 356.952 146.7 357.676 147.378C359.866 149.429 362.054 151.482 364.242 153.536C364.986 154.232 365.73 154.928 366.496 155.645C370.898 159.779 375.22 163.974 379.455 168.28C381.198 169.992 383 171.586 384.867 173.161C389.013 176.724 392.873 180.554 396.742 184.411C397.379 185.043 398.015 185.675 398.67 186.325C399.261 186.918 399.852 187.511 400.461 188.122C400.997 188.659 401.532 189.195 402.084 189.748C403.242 191.036 403.242 191.036 403.242 192.036C374.363 194.293 375.367 193.427 368.575 188.521C365.823 185.937 362.661 184.122 360.551 181.006C358.571 178.405 356.153 176.26 353.662 174.163C348.265 169.419 343.301 164.196 338.242 159.098C337.074 157.926 335.906 156.753 334.738 155.581C331.904 152.735 329.072 149.886 326.242 147.036C327.325 143.786 327.944 143.202 330.492 141.098C334.339 137.84 338.052 134.468 341.742 131.036C345.866 127.211 350.018 123.433 354.273 119.755C357.506 116.932 360.673 114.037 363.848 111.149C364.638 110.452 365.428 109.754 366.242 109.036C367.342 107.993 367.342 107.993 368.465 106.928C371.934 104.565 373.908 104.572 378.074 104.645Z" fill="#141617"/>
<path d="M378.074 104.645C380.013 104.665 380.013 104.665 381.99 104.684C383.345 104.718 384.7 104.752 386.055 104.786C387.429 104.806 388.803 104.824 390.178 104.841C393.533 104.888 396.887 104.953 400.242 105.036C399.453 105.824 398.664 106.613 397.851 107.425C396.396 108.881 394.944 110.34 393.504 111.809C389.986 115.389 386.343 118.744 382.543 122.02C379.734 124.481 376.987 127.006 374.242 129.536C370.204 133.257 366.13 136.926 361.961 140.501C359.977 142.273 358.109 144.141 356.242 146.036C356.952 146.7 356.952 146.7 357.676 147.378C359.866 149.429 362.054 151.482 364.242 153.536C364.986 154.232 365.73 154.928 366.496 155.645C370.898 159.779 375.22 163.974 379.455 168.28C381.198 169.992 383 171.586 384.867 173.161C389.013 176.724 392.873 180.554 396.742 184.411C397.379 185.043 398.015 185.675 398.67 186.325C399.261 186.918 399.852 187.511 400.461 188.122C400.997 188.659 401.532 189.195 402.084 189.748C403.242 191.036 403.242 191.036 403.242 192.036C374.363 194.293 375.367 193.427 368.575 188.521C365.823 185.937 362.661 184.122 360.551 181.006C358.571 178.405 356.153 176.26 353.662 174.163C348.265 169.419 343.301 164.196 338.242 159.098C337.074 157.926 335.906 156.753 334.738 155.581C331.904 152.735 329.072 149.886 326.242 147.036C327.325 143.786 327.944 143.202 330.492 141.098C334.339 137.84 338.052 134.468 341.742 131.036C345.866 127.211 350.018 123.433 354.273 119.755C357.506 116.932 360.673 114.037 363.848 111.149C364.638 110.452 365.428 109.754 366.242 109.036C367.342 107.993 367.342 107.993 368.465 106.928C371.934 104.565 373.908 104.572 378.074 104.645Z" fill="white"/>
<path d="M279.241 105.036C279.241 133.746 279.241 162.456 279.241 192.036C270.661 192.036 262.081 192.036 253.241 192.036C253.038 181.84 252.873 171.644 252.775 161.446C252.728 156.71 252.664 151.976 252.562 147.241C252.464 142.67 252.411 138.1 252.387 133.528C252.371 131.785 252.338 130.043 252.29 128.301C251.925 114.688 251.925 114.688 255.144 110.648C262.628 105.454 270.359 105.036 279.241 105.036Z" fill="#131415"/>
<path d="M279.241 105.036C279.241 133.746 279.241 162.456 279.241 192.036C270.661 192.036 262.081 192.036 253.241 192.036C253.038 181.84 252.873 171.644 252.775 161.446C252.728 156.71 252.664 151.976 252.562 147.241C252.464 142.67 252.411 138.1 252.387 133.528C252.371 131.785 252.338 130.043 252.29 128.301C251.925 114.688 251.925 114.688 255.144 110.648C262.628 105.454 270.359 105.036 279.241 105.036Z" fill="white"/>
<path d="M279.24 70.4269C279.629 78.2809 278.532 82.8163 273.295 89.1657C267.776 95.8565 258.603 98.4576 251.572 98.4576C250.821 89.5602 251.154 79.4287 251.288 70.5002C260.541 69.3117 269.929 70.336 279.24 70.4269Z" fill="#3B882A"/>
<path d="M279.24 70.4269C279.629 78.2809 278.532 82.8163 273.295 89.1657C267.776 95.8565 258.603 98.4576 251.572 98.4576C250.821 89.5602 251.154 79.4287 251.288 70.5002C260.541 69.3117 269.929 70.336 279.24 70.4269Z" fill="#3B882A"/>
</svg>
